<?xml version="1.0" encoding="UTF-8"?>
<svg width="700pt" height="700pt" version="1.1" viewBox="0 0 700 700" xmlns="http://www.w3.org/2000/svg" xmlns:xlink="http://www.w3.org/1999/xlink">
 <defs>
  <symbol id="x" overflow="visible">
   <path d="m3.6562-0.21875c-0.1875 0.09375-0.38672 0.16797-0.59375 0.21875-0.19922 0.050781-0.40625 0.078125-0.625 0.078125-0.66797 0-1.1992-0.17969-1.5938-0.54688-0.38672-0.375-0.57812-0.87891-0.57812-1.5156 0-0.64453 0.19141-1.1484 0.57812-1.5156 0.39453-0.375 0.92578-0.5625 1.5938-0.5625 0.21875 0 0.42578 0.027344 0.625 0.078125 0.20703 0.054687 0.40625 0.125 0.59375 0.21875v0.82812c-0.1875-0.125-0.375-0.21875-0.5625-0.28125-0.17969-0.0625-0.37109-0.09375-0.57812-0.09375-0.36719 0-0.65625 0.12109-0.875 0.35938-0.21094 0.23047-0.3125 0.55469-0.3125 0.96875 0 0.40625 0.10156 0.73047 0.3125 0.96875 0.21875 0.23047 0.50781 0.34375 0.875 0.34375 0.20703 0 0.39844-0.023437 0.57812-0.078125 0.1875-0.0625 0.375-0.16016 0.5625-0.29688z"/>
  </symbol>
  <symbol id="d" overflow="visible">
   <path d="m2.6875-2.1719c-0.085938-0.039063-0.16797-0.070313-0.25-0.09375-0.085938-0.019531-0.16797-0.03125-0.25-0.03125-0.25 0-0.44531 0.085937-0.57812 0.25-0.125 0.15625-0.1875 0.38281-0.1875 0.67188v1.375h-0.96875v-2.9844h0.96875v0.48438c0.11328-0.19531 0.25-0.33594 0.40625-0.42188 0.16406-0.09375 0.35938-0.14062 0.57812-0.14062h0.10938c0.039063 0 0.09375 0.007812 0.15625 0.015625z"/>
  </symbol>
  <symbol id="b" overflow="visible">
   <path d="m3.4375-1.5v0.26562h-2.2344c0.03125 0.23047 0.11328 0.40234 0.25 0.51562 0.13281 0.10547 0.32812 0.15625 0.57812 0.15625 0.20703 0 0.41406-0.023438 0.625-0.078125 0.20703-0.0625 0.42188-0.15625 0.64062-0.28125v0.73438c-0.21875 0.09375-0.44531 0.16406-0.67188 0.20312-0.23047 0.039062-0.45312 0.0625-0.67188 0.0625-0.54297 0-0.96484-0.13281-1.2656-0.40625-0.30469-0.28125-0.45312-0.67188-0.45312-1.1719 0-0.47656 0.14453-0.85938 0.4375-1.1406 0.30078-0.28125 0.70703-0.42188 1.2188-0.42188 0.46875 0 0.84375 0.14062 1.125 0.42188s0.42188 0.66406 0.42188 1.1406zm-0.96875-0.32812c0-0.17578-0.058594-0.31641-0.17188-0.42188-0.10547-0.11328-0.24219-0.17188-0.40625-0.17188-0.1875 0-0.33984 0.054687-0.45312 0.15625-0.11719 0.10547-0.1875 0.25-0.21875 0.4375z"/>
  </symbol>
  <symbol id="a" overflow="visible">
   <path d="m1.7969-1.3438c-0.19922 0-0.35156 0.039062-0.45312 0.10938-0.09375 0.0625-0.14062 0.16406-0.14062 0.29688 0 0.11719 0.035156 0.21094 0.10938 0.28125 0.082031 0.0625 0.19531 0.09375 0.34375 0.09375 0.17578 0 0.32812-0.0625 0.45312-0.1875s0.1875-0.28516 0.1875-0.48438v-0.10938zm1.4688-0.35938v1.7031h-0.96875v-0.4375c-0.125 0.17969-0.27344 0.30859-0.4375 0.39062-0.15625 0.082031-0.35156 0.125-0.57812 0.125-0.3125 0-0.57031-0.085938-0.76562-0.26562-0.1875-0.1875-0.28125-0.42188-0.28125-0.70312 0-0.35156 0.11719-0.61328 0.35938-0.78125 0.23828-0.16406 0.61719-0.25 1.1406-0.25h0.5625v-0.0625c0-0.15625-0.0625-0.26562-0.1875-0.32812-0.11719-0.070312-0.29688-0.10938-0.54688-0.10938-0.21094 0-0.40234 0.023437-0.57812 0.0625-0.17969 0.042969-0.33984 0.10156-0.48438 0.17188v-0.71875c0.19531-0.050781 0.39844-0.085938 0.60938-0.10938 0.20703-0.03125 0.41406-0.046875 0.625-0.046875 0.53906 0 0.92969 0.10938 1.1719 0.32812 0.23828 0.21094 0.35938 0.55469 0.35938 1.0312z"/>
  </symbol>
  <symbol id="c" overflow="visible">
   <path d="m1.5-3.8438v0.85938h0.98438v0.67188h-0.98438v1.2812c0 0.13672 0.023438 0.23047 0.078125 0.28125 0.0625 0.042969 0.17578 0.0625 0.34375 0.0625h0.48438v0.6875h-0.8125c-0.38672 0-0.65625-0.078125-0.8125-0.23438s-0.23438-0.42188-0.23438-0.79688v-1.2812h-0.46875v-0.67188h0.46875v-0.85938z"/>
  </symbol>
  <symbol id="l" overflow="visible">
   <path d="m2.5-2.5469v-1.6094h0.95312v4.1562h-0.95312v-0.4375c-0.13672 0.17969-0.28125 0.30859-0.4375 0.39062-0.15625 0.082031-0.33984 0.125-0.54688 0.125-0.375 0-0.68359-0.14453-0.92188-0.4375-0.23047-0.28906-0.34375-0.67188-0.34375-1.1406 0-0.45703 0.11328-0.83203 0.34375-1.125 0.23828-0.28906 0.54688-0.4375 0.92188-0.4375 0.19531 0 0.375 0.042969 0.53125 0.125 0.16406 0.085938 0.31641 0.21484 0.45312 0.39062zm-0.64062 1.9375c0.20703 0 0.36328-0.070313 0.46875-0.21875 0.11328-0.15625 0.17188-0.37891 0.17188-0.67188 0-0.28125-0.058594-0.49219-0.17188-0.64062-0.10547-0.15625-0.26172-0.23438-0.46875-0.23438-0.19922 0-0.35547 0.078125-0.46875 0.23438-0.10547 0.14844-0.15625 0.35938-0.15625 0.64062 0 0.29297 0.050781 0.51562 0.15625 0.67188 0.11328 0.14844 0.26953 0.21875 0.46875 0.21875z"/>
  </symbol>
  <symbol id="k" overflow="visible">
   <path d="m2.0469-0.60938c0.20703 0 0.36328-0.070313 0.46875-0.21875 0.11328-0.15625 0.17188-0.37891 0.17188-0.67188 0-0.28125-0.058594-0.49219-0.17188-0.64062-0.10547-0.15625-0.26172-0.23438-0.46875-0.23438-0.19922 0-0.35547 0.078125-0.46875 0.23438-0.10547 0.14844-0.15625 0.35938-0.15625 0.64062 0 0.29297 0.050781 0.51562 0.15625 0.67188 0.11328 0.14844 0.26953 0.21875 0.46875 0.21875zm-0.625-1.9375c0.125-0.17578 0.26562-0.30469 0.42188-0.39062 0.16406-0.082031 0.35156-0.125 0.5625-0.125 0.36328 0 0.66406 0.14844 0.90625 0.4375 0.23828 0.29297 0.35938 0.66797 0.35938 1.125 0 0.46875-0.12109 0.85156-0.35938 1.1406-0.24219 0.29297-0.54297 0.4375-0.90625 0.4375-0.21094 0-0.39844-0.042969-0.5625-0.125-0.15625-0.082031-0.29688-0.21094-0.42188-0.39062v0.4375h-0.96875v-4.1562h0.96875z"/>
  </symbol>
  <symbol id="j" overflow="visible">
   <path d="m0.0625-2.9844h0.95312l0.8125 2.0156 0.6875-2.0156h0.95312l-1.2656 3.2656c-0.125 0.33203-0.27344 0.56641-0.4375 0.70312-0.16797 0.13281-0.39062 0.20312-0.67188 0.20312h-0.54688v-0.64062h0.29688c0.16406 0 0.28516-0.027344 0.35938-0.078125 0.070313-0.054688 0.12891-0.14062 0.17188-0.26562l0.03125-0.09375z"/>
  </symbol>
  <symbol id="i" overflow="visible">
   <path d="m2.7969-2.8906v0.71875c-0.21094-0.082031-0.40625-0.14453-0.59375-0.1875-0.1875-0.039063-0.37109-0.0625-0.54688-0.0625-0.17969 0-0.3125 0.023437-0.40625 0.0625-0.085938 0.042969-0.125 0.10938-0.125 0.20312 0 0.085938 0.03125 0.14844 0.09375 0.1875 0.070312 0.042969 0.19531 0.074219 0.375 0.09375l0.15625 0.015625c0.48828 0.0625 0.81641 0.16797 0.98438 0.3125 0.17578 0.13672 0.26562 0.35938 0.26562 0.67188s-0.12109 0.55469-0.35938 0.71875c-0.23047 0.15625-0.57812 0.23438-1.0469 0.23438-0.19922 0-0.40625-0.015625-0.625-0.046875-0.21094-0.03125-0.42188-0.078125-0.64062-0.14062v-0.71875c0.1875 0.085937 0.37891 0.15234 0.57812 0.20312 0.20703 0.042969 0.41406 0.0625 0.625 0.0625 0.1875 0 0.32812-0.023438 0.42188-0.078125 0.09375-0.050781 0.14062-0.125 0.14062-0.21875s-0.039062-0.16016-0.10938-0.20312c-0.0625-0.039062-0.1875-0.070312-0.375-0.09375l-0.17188-0.015625c-0.42969-0.050781-0.73047-0.14844-0.90625-0.29688-0.16797-0.14453-0.25-0.36328-0.25-0.65625 0-0.32031 0.10938-0.55469 0.32812-0.70312 0.21875-0.15625 0.55078-0.23438 1-0.23438 0.17578 0 0.35938 0.015625 0.54688 0.046875 0.19531 0.023437 0.41016 0.0625 0.64062 0.125z"/>
  </symbol>
  <symbol id="h" overflow="visible">
   <path d="m0.42188-1.1719v-1.8125h0.96875v0.29688 0.60938 0.48438c0 0.24219 0.003906 0.41797 0.015625 0.53125 0.007812 0.10547 0.03125 0.17969 0.0625 0.21875 0.039062 0.0625 0.09375 0.11719 0.15625 0.15625 0.0625 0.03125 0.13281 0.046875 0.21875 0.046875 0.19531 0 0.35156-0.078125 0.46875-0.23438 0.11328-0.15625 0.17188-0.36719 0.17188-0.64062v-1.4688h0.95312v2.9844h-0.95312v-0.4375c-0.14844 0.17969-0.30469 0.30859-0.46875 0.39062-0.15625 0.082031-0.33594 0.125-0.53125 0.125-0.34375 0-0.60938-0.10156-0.79688-0.3125-0.17969-0.21875-0.26562-0.53125-0.26562-0.9375z"/>
  </symbol>
  <symbol id="g" overflow="visible">
   <path d="m1.4219-0.4375v1.5781h-0.96875v-4.125h0.96875v0.4375c0.125-0.17578 0.26562-0.30469 0.42188-0.39062 0.16406-0.082031 0.35156-0.125 0.5625-0.125 0.36328 0 0.66406 0.14844 0.90625 0.4375 0.23828 0.29297 0.35938 0.66797 0.35938 1.125 0 0.46875-0.12109 0.85156-0.35938 1.1406-0.24219 0.29297-0.54297 0.4375-0.90625 0.4375-0.21094 0-0.39844-0.042969-0.5625-0.125-0.15625-0.082031-0.29688-0.21094-0.42188-0.39062zm0.625-1.9375c-0.19922 0-0.35547 0.078125-0.46875 0.23438-0.10547 0.14844-0.15625 0.35938-0.15625 0.64062 0 0.29297 0.050781 0.51562 0.15625 0.67188 0.11328 0.14844 0.26953 0.21875 0.46875 0.21875 0.20703 0 0.36328-0.070313 0.46875-0.21875 0.11328-0.15625 0.17188-0.37891 0.17188-0.67188 0-0.28125-0.058594-0.49219-0.17188-0.64062-0.10547-0.15625-0.26172-0.23438-0.46875-0.23438z"/>
  </symbol>
  <symbol id="f" overflow="visible">
   <path d="m0.45312-4.1562h0.96875v4.1562h-0.96875z"/>
  </symbol>
  <symbol id="w" overflow="visible">
   <path d="m0.45312-4.1562h0.96875v2.2656l1.0938-1.0938h1.1094l-1.4531 1.3594 1.5625 1.625h-1.1562l-1.1562-1.25v1.25h-0.96875z"/>
  </symbol>
  <symbol id="v" overflow="visible">
   <path d="m0.45312-2.9844h0.96875v2.9844h-0.96875zm0-1.1719h0.96875v0.78125h-0.96875z"/>
  </symbol>
  <symbol id="u" overflow="visible">
   <path d="m0.1875-2.9844h0.9375l0.5 2.0625 0.5-2.0625h0.79688l0.5 2.0312 0.51562-2.0312h0.92188l-0.78125 2.9844h-1.0469l-0.5-2.0625-0.5 2.0625h-1.0469z"/>
  </symbol>
  <symbol id="t" overflow="visible">
   <path d="m2.4219-4.1562v0.625h-0.51562c-0.13672 0-0.23438 0.027344-0.29688 0.078125-0.054687 0.054687-0.078125 0.13672-0.078125 0.25v0.21875h0.82812v0.67188h-0.82812v2.3125h-0.95312v-2.3125h-0.46875v-0.67188h0.46875v-0.21875c0-0.32031 0.085937-0.5625 0.26562-0.71875 0.1875-0.15625 0.47266-0.23438 0.85938-0.23438z"/>
  </symbol>
  <symbol id="e" overflow="visible">
   <path d="m1.875-2.375c-0.21094 0-0.37109 0.078125-0.48438 0.23438-0.10547 0.14844-0.15625 0.35938-0.15625 0.64062 0 0.29297 0.050781 0.51562 0.15625 0.67188 0.11328 0.14844 0.27344 0.21875 0.48438 0.21875 0.20703 0 0.36719-0.070313 0.48438-0.21875 0.11328-0.15625 0.17188-0.37891 0.17188-0.67188 0-0.28125-0.058594-0.49219-0.17188-0.64062-0.11719-0.15625-0.27734-0.23438-0.48438-0.23438zm0-0.6875c0.51953 0 0.92188 0.14062 1.2031 0.42188 0.28906 0.27344 0.4375 0.65234 0.4375 1.1406 0 0.5-0.14844 0.89062-0.4375 1.1719-0.28125 0.27344-0.68359 0.40625-1.2031 0.40625-0.51172 0-0.91406-0.13281-1.2031-0.40625-0.29297-0.28125-0.4375-0.67188-0.4375-1.1719 0-0.48828 0.14453-0.86719 0.4375-1.1406 0.28906-0.28125 0.69141-0.42188 1.2031-0.42188z"/>
  </symbol>
  <symbol id="s" overflow="visible">
   <path d="m3.2344-2.5c0.11328-0.17578 0.25391-0.3125 0.42188-0.40625 0.16406-0.10156 0.35156-0.15625 0.5625-0.15625 0.33203 0 0.58594 0.10938 0.76562 0.32812 0.1875 0.21094 0.28125 0.51172 0.28125 0.90625v1.8281h-0.96875v-1.5625c0.007813-0.019531 0.015625-0.039062 0.015625-0.0625v-0.10938c0-0.21875-0.03125-0.375-0.09375-0.46875s-0.16406-0.14062-0.29688-0.14062c-0.1875 0-0.33594 0.078125-0.4375 0.23438-0.09375 0.14844-0.14062 0.35938-0.14062 0.64062v1.4688h-0.96875v-1.5625c0-0.33203-0.03125-0.54688-0.09375-0.64062-0.054688-0.09375-0.15234-0.14062-0.29688-0.14062-0.17969 0-0.32031 0.078125-0.42188 0.23438-0.09375 0.14844-0.14062 0.35938-0.14062 0.64062v1.4688h-0.96875v-2.9844h0.96875v0.4375c0.11328-0.17578 0.24219-0.30469 0.39062-0.39062 0.15625-0.082031 0.32812-0.125 0.51562-0.125 0.20703 0 0.39062 0.054688 0.54688 0.15625 0.15625 0.09375 0.27344 0.23047 0.35938 0.40625z"/>
  </symbol>
  <symbol id="r" overflow="visible">
   <path d="m3.4688-1.8281v1.8281h-0.96875v-1.3906c0-0.25781-0.007812-0.4375-0.015625-0.53125-0.011719-0.10156-0.03125-0.17578-0.0625-0.21875-0.03125-0.0625-0.085937-0.10938-0.15625-0.14062-0.0625-0.039062-0.13281-0.0625-0.20312-0.0625-0.21094 0-0.37109 0.078125-0.48438 0.23438-0.10547 0.15625-0.15625 0.37109-0.15625 0.64062v1.4688h-0.96875v-4.1562h0.96875v1.6094c0.13281-0.17578 0.28516-0.30469 0.45312-0.39062 0.16406-0.082031 0.34375-0.125 0.53125-0.125 0.34375 0 0.60156 0.10938 0.78125 0.32812 0.1875 0.21094 0.28125 0.51172 0.28125 0.90625z"/>
  </symbol>
  <symbol id="q" overflow="visible">
   <path d="m0.5-3.9844h1.1562l1.4375 2.7344v-2.7344h0.98438v3.9844h-1.1562l-1.4375-2.7344v2.7344h-0.98438z"/>
  </symbol>
  <symbol id="p" overflow="visible">
   <path d="m3.4688-1.8281v1.8281h-0.96875v-1.3906c0-0.25781-0.007812-0.4375-0.015625-0.53125-0.011719-0.10156-0.03125-0.17578-0.0625-0.21875-0.03125-0.0625-0.085937-0.10938-0.15625-0.14062-0.0625-0.039062-0.13281-0.0625-0.20312-0.0625-0.21094 0-0.37109 0.078125-0.48438 0.23438-0.10547 0.15625-0.15625 0.37109-0.15625 0.64062v1.4688h-0.96875v-2.9844h0.96875v0.4375c0.13281-0.17578 0.28516-0.30469 0.45312-0.39062 0.16406-0.082031 0.34375-0.125 0.53125-0.125 0.34375 0 0.60156 0.10938 0.78125 0.32812 0.1875 0.21094 0.28125 0.51172 0.28125 0.90625z"/>
  </symbol>
  <symbol id="o" overflow="visible">
   <path d="m0.5-3.9844h1.7031c0.50781 0 0.89844 0.11719 1.1719 0.34375 0.26953 0.21875 0.40625 0.53906 0.40625 0.95312 0 0.41797-0.13672 0.74219-0.40625 0.96875-0.27344 0.21875-0.66406 0.32812-1.1719 0.32812h-0.67188v1.3906h-1.0312zm1.0312 0.75v1.1094h0.5625c0.19531 0 0.34766-0.046875 0.45312-0.14062 0.11328-0.10156 0.17188-0.24219 0.17188-0.42188 0-0.17578-0.058594-0.3125-0.17188-0.40625-0.10547-0.09375-0.25781-0.14062-0.45312-0.14062z"/>
  </symbol>
  <symbol id="n" overflow="visible">
   <path d="m0.45312-2.9844h0.96875v2.9375c0 0.39453-0.10156 0.69531-0.29688 0.90625-0.1875 0.21875-0.46484 0.32812-0.82812 0.32812h-0.48438v-0.64062h0.17188c0.17578 0 0.29688-0.042969 0.35938-0.125 0.070312-0.074219 0.10938-0.23047 0.10938-0.46875zm0-1.1719h0.96875v0.78125h-0.96875z"/>
  </symbol>
  <symbol id="m" overflow="visible">
   <path d="m2.875-2.8906v0.76562c-0.125-0.082031-0.25781-0.14453-0.39062-0.1875-0.13672-0.039062-0.27344-0.0625-0.40625-0.0625-0.27344 0-0.48047 0.078125-0.625 0.23438-0.14844 0.15625-0.21875 0.37109-0.21875 0.64062 0 0.28125 0.070313 0.5 0.21875 0.65625 0.14453 0.15625 0.35156 0.23438 0.625 0.23438 0.14453 0 0.28516-0.019531 0.42188-0.0625 0.13281-0.039063 0.25781-0.10938 0.375-0.20312v0.78125c-0.14844 0.0625-0.29688 0.10156-0.45312 0.125-0.15625 0.03125-0.3125 0.046875-0.46875 0.046875-0.54297 0-0.96484-0.13281-1.2656-0.40625-0.30469-0.28125-0.45312-0.67188-0.45312-1.1719 0-0.48828 0.14844-0.86719 0.45312-1.1406 0.30078-0.28125 0.72266-0.42188 1.2656-0.42188 0.15625 0 0.3125 0.015625 0.46875 0.046875 0.15625 0.023437 0.30469 0.0625 0.45312 0.125z"/>
  </symbol>
 </defs>
 <g>
  <path d="m480.25 137.81c0 6.043-4.8984 10.938-10.938 10.938-6.043 0-10.938-4.8945-10.938-10.938 0-6.0391 4.8945-10.938 10.938-10.938 6.0391 0 10.938 4.8984 10.938 10.938"/>
  <path d="m532.75 137.81c0 6.043-4.8984 10.938-10.938 10.938-6.043 0-10.938-4.8945-10.938-10.938 0-6.0391 4.8945-10.938 10.938-10.938 6.0391 0 10.938 4.8984 10.938 10.938"/>
  <path d="m177.81 500.75c34.062 15.867 73.707 14.23 106.34-4.3945l10.133-5.7891c18.258 21.848 45.273 34.461 73.742 34.43h126.18c3.3164 0 6.3438-1.8711 7.8281-4.8359l8.75-17.5c1.6836-3.3711 1.0195-7.4375-1.6406-10.102l-14.656-14.656 8.3594-108.66 27.652-82.957h-0.003906c4.9453-14.812 7.4609-30.328 7.457-45.945v-9.625l4.0898-4.8047c5.4102-6.3711 10.062-13.348 13.859-20.793l18.469 4.6172c2.2539 0.57422 4.6445 0.22656 6.6445-0.96484 2-1.1953 3.4375-3.1367 4.0039-5.3945s0.20703-4.6445-0.99609-6.6406c-1.2031-1.9922-3.1484-3.4258-5.4102-3.9766l-15.961-3.9922c2.0547-6.4727 3.4922-13.125 4.2969-19.867l11.664-2.9141c2.2617-0.55469 4.207-1.9883 5.4102-3.9805 1.2031-1.9922 1.5625-4.3828 0.99609-6.6406-0.56641-2.2578-2.0039-4.1992-4.0039-5.3906-2-1.1953-4.3906-1.543-6.6445-0.96484l-6.7812 1.6953v-0.003906c-0.48047-9.7695-2.293-19.434-5.3828-28.715l-3.668-11.008c-0.054687-0.16406-0.11328-0.32422-0.17578-0.48047l-17.5-43.75h-0.003906c-0.79688-1.9922-2.2969-3.6211-4.2148-4.5781-2.3086-1.1523-6.8789-2.2695-11.57 3.1914-0.64062 0.74609-1.5312 1.8281-2.5938 3.1289-1.7891 2.1992-4.2383 5.2695-7.2891 9.1289-2.8945 3.6641-5.7695 7.3281-7.7656 9.8789h-28.117l-38.031-24.824c-2.5586-1.668-5.8008-1.8828-8.5586-0.56641-2.7539 1.3203-4.625 3.9805-4.9297 7.0195l-3.4453 34.09-0.76172 2.3828v0.003906c-4.5234 14.219-7.2188 28.957-8.0117 43.859-3.2031 1.3555-5.2969 4.4883-5.3242 7.9688-0.03125 3.4766 2.0078 6.6445 5.1875 8.0547 0.30859 8.5469 1.2461 17.055 2.8008 25.465-0.042969 0.50781-0.11328 1.0078-0.16797 1.5156l-1.1953 0.29688c-3.4883 0.875-6.0859 3.7969-6.5508 7.3633-0.46094 3.5664 1.3047 7.0547 4.457 8.7891-4.1719 14.023-11.637 26.848-21.777 37.395l-11.133 4.4531v0.003906c-24.555 9.7578-46.598 24.918-64.5 44.352-17.902 19.434-31.203 42.645-38.922 67.914-6.457 21.102-8.9375 43.219-7.3125 65.223l-20.344 16.953c-10.168 8.4766-23.684 11.781-36.617 8.9609-12.934-2.8242-23.836-11.461-29.547-23.406-5.7109-11.941-5.5898-25.852 0.33203-37.691l7.918-15.84c14.094-28.109 13.168-61.41-2.4609-88.695l-3.293-5.7617c-5.0664-8.6523-14.363-13.945-24.391-13.883-10.027 0.0625-19.258 5.4688-24.219 14.184-4.9609 8.7148-4.8945 19.414 0.17188 28.066l0.93359 1.5547v-0.003906c7.582 12.566 8.1797 28.145 1.582 41.258l-8.5742 17.145h0.003907c-11.566 23.125-13.289 49.945-4.7812 74.363 8.5039 24.418 26.52 44.359 49.953 55.297zm253.37-28.254h-6.9648l5.3008-7.0703zm-136-104.32c14.086-46.129 48.375-83.352 93.195-101.17l12.84-5.1406c1.1016-0.44141 2.0977-1.0977 2.9375-1.9375 14.609-14.625 24.77-33.102 29.289-53.277l22.684-5.6719c2.2617-0.55469 4.207-1.9844 5.4102-3.9805 1.2031-1.9922 1.5586-4.3828 0.99609-6.6406-0.56641-2.2578-2.0078-4.1953-4.0039-5.3906-2-1.1914-4.3906-1.5391-6.6484-0.96484l-16.355 4.0898c-1.1211-5.9609-1.8945-11.98-2.3203-18.031l18.676 4.668c2.2578 0.57422 4.6484 0.22656 6.6484-0.96484 1.9961-1.1914 3.4375-3.1328 4.0039-5.3906 0.5625-2.2578 0.20703-4.6484-0.99609-6.6406-1.2031-1.9922-3.1484-3.4258-5.4102-3.9805l-23.148-5.7891c0.60547-13.945 3.0547-27.754 7.2852-41.059l1.0391-3.2539c0.18359-0.57812 0.30859-1.1758 0.37109-1.7773l2.0938-20.691 28.164 18.391c1.4258 0.92969 3.0859 1.4219 4.7852 1.4219h35c2.6992 0 5.2461-1.2461 6.9023-3.375 3.875-4.9727 7.9922-10.219 11.5-14.648l11.914 29.785 3.5859 10.762h0.003906c2.957 8.8789 4.5117 18.164 4.6133 27.523l-10.852 2.7148h-0.003906c-2.2578 0.55469-4.207 1.9844-5.4062 3.9805-1.2031 1.9922-1.5625 4.3828-0.99609 6.6406 0.5625 2.2578 2.0039 4.1992 4.0039 5.3906 1.9961 1.1914 4.3906 1.5391 6.6445 0.96484l4.9023-1.2266c-0.73438 3.7266-1.7031 7.3984-2.8984 11l-2.0039-0.5c-4.4922-1.1055-9.0703 1.4766-10.445 5.8945s0.92578 9.1406 5.25 10.781c-2.7891 4.9258-6.0391 9.5742-9.7031 13.887l-6.1758 7.2578v-0.003906c-1.3477 1.582-2.0859 3.5938-2.0859 5.6719v12.84c0.003906 13.738-2.2109 27.387-6.5625 40.414l-27.992 83.977v0.003906c-0.22656 0.67578-0.36719 1.3789-0.42188 2.0938l-8.75 113.75c-0.19531 2.5469 0.73047 5.0547 2.5352 6.8594l13.039 13.039-3.5039 7.0234h-31.414l-33.414-142c-1.1055-4.7031-5.8164-7.6211-10.52-6.5117-4.7031 1.1055-7.6211 5.8164-6.5156 10.52l17.348 73.719-24.578 32.777c-1.9883 2.6523-2.3086 6.1992-0.82422 9.1641 1.4805 2.9648 4.5117 4.8359 7.8242 4.8359h28.586l4.1172 17.5h-71.387c-18.809 0-37-6.7344-51.273-18.98-14.277-12.246-23.699-29.203-26.559-47.793l-0.21875-1.4023c-3.6289-23.805-1.8516-48.121 5.1992-71.145zm-146.89 10.742 8.5742-17.145v-0.003906c9.2891-18.457 8.4453-40.395-2.2305-58.086l-0.93359-1.5547v0.003907c-1.5117-2.5234-1.9062-5.5664-1.082-8.3906 0.82031-2.8242 2.7852-5.1797 5.418-6.4961 5.0156-2.5078 11.117-0.66016 13.902 4.207l3.293 5.7617c12.719 22.207 13.473 49.309 2.0039 72.188l-7.9219 15.84c-8.3359 16.668-8.5078 36.254-0.46875 53.066 8.043 16.816 23.395 28.977 41.605 32.953 18.207 3.9766 37.234-0.67969 51.551-12.609l11.902-9.918c2.0391 9.6094 5.5391 18.848 10.375 27.402l-8.8008 5.0312c-27.703 15.805-61.352 17.191-90.262 3.7266-19.152-8.9375-33.879-25.238-40.832-45.195-6.957-19.961-5.5469-41.883 3.9062-60.785z"/>
  <path d="m488.69 180.41c-2.2812 2.1484-5.3008 3.3398-8.4336 3.3359-4.832 0-8.75 3.918-8.75 8.75s3.918 8.75 8.75 8.75c6.2852 0.019531 12.41-1.9609 17.5-5.6523 5.0859 3.6914 11.215 5.668 17.5 5.6523 4.832 0 8.75-3.918 8.75-8.75s-3.918-8.75-8.75-8.75c-3.1367 0.003906-6.1523-1.1914-8.4336-3.3398l6.6836-8.9102c1.9883-2.6523 2.3086-6.1992 0.82422-9.1641-1.4805-2.9648-4.5117-4.8359-7.8242-4.8359h-17.5c-3.3164 0-6.3438 1.8711-7.8281 4.8359-1.4805 2.9648-1.1602 6.5117 0.82812 9.1641z"/>
  <use x="70" y="576.40625" xlink:href="#x"/>
  <use x="74.011719" y="576.40625" xlink:href="#d"/>
  <use x="76.710938" y="576.40625" xlink:href="#b"/>
  <use x="80.417969" y="576.40625" xlink:href="#a"/>
  <use x="84.109375" y="576.40625" xlink:href="#c"/>
  <use x="86.722656" y="576.40625" xlink:href="#b"/>
  <use x="90.433594" y="576.40625" xlink:href="#l"/>
  <use x="96.25" y="576.40625" xlink:href="#k"/>
  <use x="100.167969" y="576.40625" xlink:href="#j"/>
  <use x="105.636719" y="576.40625" xlink:href="#i"/>
  <use x="108.890625" y="576.40625" xlink:href="#h"/>
  <use x="112.785156" y="576.40625" xlink:href="#g"/>
  <use x="116.699219" y="576.40625" xlink:href="#a"/>
  <use x="120.386719" y="576.40625" xlink:href="#f"/>
  <use x="122.261719" y="576.40625" xlink:href="#b"/>
  <use x="125.972656" y="576.40625" xlink:href="#d"/>
  <use x="128.667969" y="576.40625" xlink:href="#w"/>
  <use x="134.210938" y="576.40625" xlink:href="#f"/>
  <use x="136.085938" y="576.40625" xlink:href="#a"/>
  <use x="139.773438" y="576.40625" xlink:href="#v"/>
  <use x="141.648438" y="576.40625" xlink:href="#g"/>
  <use x="145.5625" y="576.40625" xlink:href="#a"/>
  <use x="149.253906" y="576.40625" xlink:href="#u"/>
  <use x="154.304688" y="576.40625" xlink:href="#a"/>
  <use x="157.996094" y="576.40625" xlink:href="#c"/>
  <use x="70" y="581.875" xlink:href="#t"/>
  <use x="72.378906" y="581.875" xlink:href="#d"/>
  <use x="75.078125" y="581.875" xlink:href="#e"/>
  <use x="78.832031" y="581.875" xlink:href="#s"/>
  <use x="86.4375" y="581.875" xlink:href="#c"/>
  <use x="89.050781" y="581.875" xlink:href="#r"/>
  <use x="92.941406" y="581.875" xlink:href="#b"/>
  <use x="98.554688" y="581.875" xlink:href="#q"/>
  <use x="103.132812" y="581.875" xlink:href="#e"/>
  <use x="106.890625" y="581.875" xlink:href="#h"/>
  <use x="110.785156" y="581.875" xlink:href="#p"/>
  <use x="116.582031" y="581.875" xlink:href="#o"/>
  <use x="120.589844" y="581.875" xlink:href="#d"/>
  <use x="123.285156" y="581.875" xlink:href="#e"/>
  <use x="127.042969" y="581.875" xlink:href="#n"/>
  <use x="128.917969" y="581.875" xlink:href="#b"/>
  <use x="132.625" y="581.875" xlink:href="#m"/>
  <use x="135.867188" y="581.875" xlink:href="#c"/>
 </g>
</svg>
