<?xml version="1.0" encoding="UTF-8"?>
<svg width="700pt" height="700pt" version="1.1" viewBox="0 0 700 700" xmlns="http://www.w3.org/2000/svg">
 <path d="m516.34 66.172h-29.004v-19.504c0-7.7344-6.2695-14-14-14-7.7305 0-14 6.2656-14 14v19.508l-218.7-0.003906v-19.504c0-7.7344-6.2695-14-14-14s-14 6.2656-14 14v19.508l-28.98-0.003906c-18.113 0.019531-35.48 7.2227-48.289 20.031-12.809 12.809-20.012 30.176-20.031 48.289v324.52c0.019531 18.117 7.2227 35.48 20.031 48.289 12.809 12.809 30.176 20.016 48.289 20.031h332.69c18.113-0.015625 35.48-7.2227 48.289-20.031 12.809-12.809 20.012-30.172 20.031-48.289v-324.52c-0.019531-18.113-7.2227-35.48-20.031-48.289-12.809-12.809-30.176-20.012-48.289-20.031zm40.344 392.84c-0.011719 10.695-4.2695 20.949-11.832 28.508-7.5625 7.5586-17.816 11.809-28.512 11.812h-332.69c-10.695-0.003906-20.949-4.2539-28.512-11.812-7.5625-7.5586-11.82-17.812-11.832-28.508v-251.77h413.35zm0-279.77h-413.35v-44.754c0.011718-10.688 4.2656-20.938 11.824-28.496s17.809-11.809 28.496-11.824h29.004v17.688c0 7.7344 6.2695 14 14 14 7.7305 0 14-6.2656 14-14v-17.688h218.7v17.688c0 7.7344 6.2695 14 14 14s14-6.2656 14-14v-17.688h29.004c10.691 0.007813 20.949 4.2578 28.512 11.816 7.5625 7.5586 11.82 17.812 11.832 28.504zm-299.72 196.21c-5.4688-5.4766-5.4648-14.352 0.011719-19.82 5.4766-5.4727 14.352-5.4688 19.824 0.011719l34.324 34.348 112.14-112-0.003906-0.003906c5.4844-5.3867 14.285-5.3477 19.719 0.09375 5.4336 5.4375 5.4648 14.242 0.070313 19.719l-122.01 122.01v-0.003906c-2.625 2.6289-6.1875 4.1055-9.9062 4.1055-3.7148 0-7.2773-1.4766-9.9023-4.1055z"/>
</svg>
